<?xml version="1.0" encoding="UTF-8"?>
<svg xmlns="http://www.w3.org/2000/svg" xmlns:xlink="http://www.w3.org/1999/xlink" width="600px" height="539px" viewBox="0 0 599 539" version="1.1">
<g id="surface1">
<path style=" stroke:none;fill-rule:nonzero;fill:rgb(0%,0%,0%);fill-opacity:1;" d="M 372.746094 39.121094 C 368.40625 46.183594 360.8125 71.179688 355.386719 95.085938 C 350.5 118.992188 345.617188 142.355469 343.992188 147.789062 C 341.820312 154.308594 350.5 160.832031 374.917969 173.328125 C 413.441406 192.34375 428.632812 194.519531 428.632812 180.390625 C 428.632812 172.785156 432.429688 171.152344 451.960938 172.785156 L 474.75 174.414062 L 460.101562 165.722656 C 447.078125 158.113281 429.175781 135.835938 436.226562 135.835938 C 437.855469 135.835938 447.078125 140.726562 456.847656 146.703125 C 492.113281 167.894531 526.296875 153.222656 526.296875 116.277344 C 526.296875 99.433594 525.753906 98.890625 499.167969 96.714844 C 483.976562 95.085938 467.699219 90.195312 462.273438 84.761719 C 456.847656 79.871094 448.164062 76.070312 443.28125 76.070312 C 430.800781 76.070312 431.886719 69.546875 444.910156 60.855469 C 460.101562 51.617188 459.015625 38.035156 442.195312 38.035156 C 432.972656 38.035156 426.460938 42.925781 420.492188 53.792969 C 408.015625 78.785156 402.046875 78.785156 403.132812 53.246094 C 404.214844 33.144531 402.589844 29.882812 392.28125 28.253906 C 384.683594 27.167969 377.628906 30.972656 372.746094 39.121094 Z M 455.761719 99.976562 C 455.761719 111.386719 444.367188 116.820312 439.484375 108.125 C 436.769531 104.324219 436.226562 98.890625 437.3125 96.714844 C 442.195312 89.109375 455.761719 91.824219 455.761719 99.976562 Z M 455.761719 99.976562 "/>
<path style=" stroke:none;fill-rule:nonzero;fill:rgb(0%,0%,0%);fill-opacity:1;" d="M 121.535156 182.019531 C 119.910156 189.628906 119.910156 202.125 122.621094 210.273438 C 126.960938 226.574219 128.046875 232.550781 129.132812 243.417969 C 130.21875 252.113281 162.773438 266.238281 181.761719 266.238281 C 191.527344 266.238281 195.324219 268.957031 195.324219 276.019531 C 195.324219 293.949219 169.28125 363.5 146.496094 405.878906 C 123.707031 449.347656 119.910156 473.796875 136.726562 477.058594 C 142.695312 478.144531 149.207031 471.625 156.261719 455.324219 C 166.570312 432.503906 199.125 395.554688 218.65625 385.234375 C 231.679688 378.167969 230.050781 385.777344 214.316406 407.511719 C 199.667969 427.070312 196.410156 445 207.804688 446.085938 C 222.996094 447.71875 231.136719 443.914062 245.785156 428.699219 C 253.925781 420.007812 263.148438 412.945312 265.859375 412.945312 C 268.574219 412.945312 281.59375 403.707031 295.160156 391.753906 C 309.265625 379.257812 330.96875 367.300781 348.332031 362.414062 C 431.34375 337.960938 442.738281 337.960938 437.855469 361.867188 C 434.601562 379.800781 443.824219 384.144531 457.386719 370.5625 C 472.039062 355.890625 471.496094 329.269531 456.847656 313.511719 C 441.113281 296.667969 440.570312 271.671875 456.304688 271.671875 C 463.898438 271.671875 469.867188 278.195312 476.378906 293.40625 C 490.484375 326.550781 504.59375 320.03125 504.59375 279.824219 C 504.59375 252.113281 485.058594 232.550781 457.386719 231.464844 C 439.484375 231.464844 433.515625 228.75 429.175781 218.96875 C 425.375 211.363281 418.324219 206.472656 411.269531 206.472656 C 396.621094 206.472656 354.300781 187.996094 341.277344 176.042969 C 333.683594 168.980469 330.96875 170.066406 318.488281 186.910156 C 289.734375 223.859375 236.5625 244.507812 196.410156 234.183594 C 167.65625 226.03125 142.695312 204.839844 138.355469 184.738281 C 134.015625 164.632812 126.417969 163.546875 121.535156 182.019531 Z M 389.023438 228.207031 C 390.652344 234.183594 394.992188 239.074219 399.332031 239.074219 C 403.132812 239.074219 412.898438 241.789062 420.492188 245.59375 C 440.027344 254.285156 437.3125 276.5625 415.066406 287.972656 C 384.683594 303.1875 385.226562 317.859375 415.609375 311.882812 C 429.71875 309.164062 437.3125 310.792969 444.910156 317.859375 C 460.644531 331.984375 458.472656 336.875 435.144531 335.789062 C 424.292969 335.789062 406.386719 337.960938 396.078125 341.222656 C 385.769531 344.480469 362.980469 351.003906 346.160156 355.890625 C 316.863281 364.042969 304.382812 372.191406 243.613281 423.808594 C 225.167969 439.023438 206.175781 445.542969 206.175781 435.765625 C 206.175781 433.589844 212.144531 423.265625 219.742188 412.945312 C 227.335938 402.621094 236.019531 385.234375 238.730469 374.367188 C 243.613281 357.523438 242.53125 351.003906 232.761719 334.703125 C 222.996094 318.402344 222.453125 312.96875 227.335938 297.210938 C 235.476562 273.304688 271.285156 254.828125 271.285156 274.390625 C 271.285156 278.738281 269.117188 282.539062 265.859375 282.539062 C 257.179688 282.539062 243.613281 307.535156 247.414062 317.316406 C 251.753906 328.179688 259.351562 328.726562 270.742188 318.402344 C 275.625 314.597656 292.445312 306.992188 307.636719 302.101562 C 339.648438 291.777344 351.585938 278.738281 365.695312 242.332031 C 376.003906 215.707031 384.683594 210.273438 389.023438 228.207031 Z M 389.023438 228.207031 "/>
</g>
</svg>
